<mxfile host="65bd71144e">
    <diagram id="GTg2kHGAo5YdWoDy6j4f" name="Page-1">
        <mxGraphModel dx="1405" dy="613" grid="1" gridSize="10" guides="1" tooltips="1" connect="1" arrows="1" fold="1" page="1" pageScale="1" pageWidth="827" pageHeight="1169" math="0" shadow="0">
            <root>
                <mxCell id="0"/>
                <mxCell id="1" parent="0"/>
                <mxCell id="2" value="Конец" style="rounded=1;whiteSpace=wrap;html=1;arcSize=50;fontSize=18;fontColor=#F0F0F0;fillColor=#576675;gradientColor=none;" parent="1" vertex="1">
                    <mxGeometry x="354" y="1650" width="120" height="50" as="geometry"/>
                </mxCell>
                <mxCell id="6" value="" style="edgeStyle=none;html=1;fontSize=18;fontColor=#F0F0F0;strokeColor=#576675;strokeWidth=2;fillColor=#576675;" parent="1" source="3" target="5" edge="1">
                    <mxGeometry relative="1" as="geometry"/>
                </mxCell>
                <mxCell id="3" value="&lt;font style=&quot;font-size: 18px&quot;&gt;Полученный от пользователя массив&amp;nbsp;&lt;/font&gt;&lt;span style=&quot;font-family: &amp;quot;jetbrains mono&amp;quot; , &amp;quot;consolas&amp;quot; , &amp;quot;courier new&amp;quot; , monospace ; font-size: 16px ; color: rgb(86 , 156 , 214)&quot;&gt;string&lt;/span&gt;&lt;span style=&quot;color: rgb(212, 212, 212); font-family: &amp;quot;jetbrains mono&amp;quot;, consolas, &amp;quot;courier new&amp;quot;, monospace; font-size: 16px;&quot;&gt;[&lt;/span&gt;&lt;span style=&quot;color: rgb(212, 212, 212); font-family: &amp;quot;jetbrains mono&amp;quot;, consolas, &amp;quot;courier new&amp;quot;, monospace; font-size: 16px;&quot;&gt;]&lt;/span&gt;&lt;span style=&quot;color: rgb(212, 212, 212); font-family: &amp;quot;jetbrains mono&amp;quot;, consolas, &amp;quot;courier new&amp;quot;, monospace; font-size: 16px;&quot;&gt; &lt;/span&gt;&lt;span style=&quot;font-family: &amp;quot;jetbrains mono&amp;quot; , &amp;quot;consolas&amp;quot; , &amp;quot;courier new&amp;quot; , monospace ; font-size: 16px ; color: rgb(156 , 220 , 254)&quot;&gt;strings&lt;/span&gt;" style="shape=parallelogram;perimeter=parallelogramPerimeter;whiteSpace=wrap;html=1;fixedSize=1;fontSize=18;fontColor=#F0F0F0;fillColor=#576675;labelBackgroundColor=none;" parent="1" vertex="1">
                    <mxGeometry x="134" y="100" width="560" height="70" as="geometry"/>
                </mxCell>
                <mxCell id="10" value="" style="edgeStyle=none;html=1;fontSize=18;fontColor=#F0F0F0;strokeColor=#576675;strokeWidth=2;fillColor=#576675;" parent="1" source="5" target="9" edge="1">
                    <mxGeometry relative="1" as="geometry"/>
                </mxCell>
                <mxCell id="5" value="&lt;div style=&quot;color: rgb(212, 212, 212); font-family: &amp;quot;jetbrains mono&amp;quot;, consolas, &amp;quot;courier new&amp;quot;, monospace; font-size: 16px; line-height: 22px;&quot;&gt;&lt;span style=&quot;color: #569cd6&quot;&gt;string&lt;/span&gt; &lt;span style=&quot;color: #9cdcfe&quot;&gt;temp&lt;/span&gt; = &lt;span style=&quot;color: #569cd6&quot;&gt;string&lt;/span&gt;.Empty;&lt;/div&gt;&lt;div style=&quot;color: rgb(212, 212, 212); font-family: &amp;quot;jetbrains mono&amp;quot;, consolas, &amp;quot;courier new&amp;quot;, monospace; font-size: 16px; line-height: 22px;&quot;&gt;&lt;div style=&quot;font-family: &amp;quot;jetbrains mono&amp;quot; , &amp;quot;consolas&amp;quot; , &amp;quot;courier new&amp;quot; , monospace ; line-height: 22px&quot;&gt;&lt;span style=&quot;color: #569cd6&quot;&gt;int&lt;/span&gt; &lt;span style=&quot;color: #9cdcfe&quot;&gt;i&lt;/span&gt; = &lt;span style=&quot;color: #b5cea8&quot;&gt;0&lt;/span&gt;;&lt;/div&gt;&lt;/div&gt;" style="whiteSpace=wrap;html=1;fontSize=18;fontColor=#F0F0F0;labelBackgroundColor=none;fillColor=#576675;" parent="1" vertex="1">
                    <mxGeometry x="159" y="255" width="510" height="60" as="geometry"/>
                </mxCell>
                <mxCell id="12" value="" style="edgeStyle=none;html=1;fontSize=18;fontColor=#F0F0F0;strokeColor=#F0F0F0;strokeWidth=2;fillColor=#576675;" parent="1" source="9" target="11" edge="1">
                    <mxGeometry relative="1" as="geometry"/>
                </mxCell>
                <mxCell id="35" value="" style="edgeStyle=none;html=1;fontSize=18;fontColor=#F0F0F0;strokeColor=#576675;strokeWidth=4;fillColor=#576675;" parent="1" source="9" target="34" edge="1">
                    <mxGeometry relative="1" as="geometry">
                        <Array as="points">
                            <mxPoint x="800" y="420"/>
                            <mxPoint x="800" y="1390"/>
                        </Array>
                    </mxGeometry>
                </mxCell>
                <mxCell id="9" value="&lt;div style=&quot;color: rgb(212, 212, 212); font-family: &amp;quot;jetbrains mono&amp;quot;, consolas, &amp;quot;courier new&amp;quot;, monospace; font-size: 12px; line-height: 22px;&quot;&gt;&lt;span style=&quot;color: #9cdcfe&quot;&gt;i&lt;/span&gt; &amp;lt; &lt;span style=&quot;color: #9cdcfe&quot;&gt;strings&lt;/span&gt;.Length&lt;/div&gt;" style="rhombus;whiteSpace=wrap;html=1;fontSize=18;fontColor=#F0F0F0;labelBackgroundColor=none;fillColor=#576675;" parent="1" vertex="1">
                    <mxGeometry x="322" y="370" width="184" height="100" as="geometry"/>
                </mxCell>
                <mxCell id="14" value="" style="edgeStyle=none;html=1;fontSize=12;fontColor=#F0F0F0;strokeColor=#576675;strokeWidth=2;fillColor=#576675;" parent="1" source="11" target="13" edge="1">
                    <mxGeometry relative="1" as="geometry"/>
                </mxCell>
                <mxCell id="31" style="edgeStyle=none;html=1;exitX=1;exitY=0.5;exitDx=0;exitDy=0;entryX=1;entryY=0.5;entryDx=0;entryDy=0;fontSize=18;fontColor=#F0F0F0;strokeColor=#576675;strokeWidth=4;fillColor=#576675;" parent="1" source="11" target="23" edge="1">
                    <mxGeometry relative="1" as="geometry">
                        <Array as="points">
                            <mxPoint x="710" y="630"/>
                            <mxPoint x="710" y="1160"/>
                        </Array>
                    </mxGeometry>
                </mxCell>
                <mxCell id="11" value="&lt;div style=&quot;color: rgb(212 , 212 , 212) ; font-family: &amp;#34;jetbrains mono&amp;#34; , &amp;#34;consolas&amp;#34; , &amp;#34;courier new&amp;#34; , monospace ; font-size: 12px ; line-height: 22px&quot;&gt;&lt;span style=&quot;color: #9cdcfe&quot;&gt;strings&lt;/span&gt;[&lt;span style=&quot;color: #9cdcfe&quot;&gt;i&lt;/span&gt;].Length &amp;lt;= &lt;span style=&quot;color: #b5cea8&quot;&gt;3&lt;/span&gt;&amp;nbsp;&lt;/div&gt;&lt;div style=&quot;color: rgb(212 , 212 , 212) ; font-family: &amp;#34;jetbrains mono&amp;#34; , &amp;#34;consolas&amp;#34; , &amp;#34;courier new&amp;#34; , monospace ; font-size: 12px ; line-height: 22px&quot;&gt;&amp;amp;&amp;amp; &lt;span style=&quot;color: #9cdcfe&quot;&gt;strings&lt;/span&gt;[&lt;span style=&quot;color: #9cdcfe&quot;&gt;i&lt;/span&gt;] != &lt;span style=&quot;color: #ce9178&quot;&gt;&quot; &quot;&lt;/span&gt;&amp;nbsp;&lt;/div&gt;&lt;div style=&quot;color: rgb(212 , 212 , 212) ; font-family: &amp;#34;jetbrains mono&amp;#34; , &amp;#34;consolas&amp;#34; , &amp;#34;courier new&amp;#34; , monospace ; font-size: 12px ; line-height: 22px&quot;&gt;&amp;amp;&amp;amp; !&lt;span style=&quot;color: #569cd6&quot;&gt;string&lt;/span&gt;.&lt;span style=&quot;color: #dcdcaa&quot;&gt;IsNullOrEmpty&lt;/span&gt;(&lt;span style=&quot;color: #9cdcfe&quot;&gt;strings&lt;/span&gt;[&lt;span style=&quot;color: #9cdcfe&quot;&gt;i&lt;/span&gt;])&lt;/div&gt;" style="rhombus;whiteSpace=wrap;html=1;fontSize=18;fontColor=#F0F0F0;strokeColor=default;labelBackgroundColor=none;fillColor=#576675;" parent="1" vertex="1">
                    <mxGeometry x="223" y="520" width="381" height="220" as="geometry"/>
                </mxCell>
                <mxCell id="16" value="" style="edgeStyle=none;html=1;fontSize=12;fontColor=#F0F0F0;strokeColor=#576675;strokeWidth=2;fillColor=#576675;" parent="1" source="13" target="15" edge="1">
                    <mxGeometry relative="1" as="geometry"/>
                </mxCell>
                <mxCell id="21" value="YES" style="edgeLabel;html=1;align=center;verticalAlign=middle;resizable=0;points=[];fontSize=18;fontColor=#F0F0F0;labelBackgroundColor=default;fillColor=#576675;" parent="16" vertex="1" connectable="0">
                    <mxGeometry x="-0.347" y="1" relative="1" as="geometry">
                        <mxPoint as="offset"/>
                    </mxGeometry>
                </mxCell>
                <mxCell id="32" value="YES" style="edgeLabel;html=1;align=center;verticalAlign=middle;resizable=0;points=[];fontSize=18;fontColor=#F0F0F0;labelBackgroundColor=default;fillColor=#576675;" parent="16" vertex="1" connectable="0">
                    <mxGeometry x="-0.347" y="1" relative="1" as="geometry">
                        <mxPoint x="-1" y="-222" as="offset"/>
                    </mxGeometry>
                </mxCell>
                <mxCell id="36" value="YES" style="edgeLabel;html=1;align=center;verticalAlign=middle;resizable=0;points=[];fontSize=18;fontColor=#F0F0F0;labelBackgroundColor=default;fillColor=#576675;" parent="16" vertex="1" connectable="0">
                    <mxGeometry x="-0.347" y="1" relative="1" as="geometry">
                        <mxPoint x="-1" y="-490" as="offset"/>
                    </mxGeometry>
                </mxCell>
                <mxCell id="20" value="" style="edgeStyle=none;html=1;fontSize=12;fontColor=#F0F0F0;strokeColor=#576675;exitX=0;exitY=0.5;exitDx=0;exitDy=0;strokeWidth=2;fillColor=#576675;" parent="1" source="13" target="19" edge="1">
                    <mxGeometry relative="1" as="geometry">
                        <Array as="points">
                            <mxPoint x="90" y="880"/>
                        </Array>
                    </mxGeometry>
                </mxCell>
                <mxCell id="22" value="NO" style="edgeLabel;html=1;align=center;verticalAlign=middle;resizable=0;points=[];fontSize=18;fontColor=#F0F0F0;labelBackgroundColor=default;fillColor=#576675;" parent="20" vertex="1" connectable="0">
                    <mxGeometry x="-0.4813" y="-2" relative="1" as="geometry">
                        <mxPoint as="offset"/>
                    </mxGeometry>
                </mxCell>
                <mxCell id="33" value="NO" style="edgeLabel;html=1;align=center;verticalAlign=middle;resizable=0;points=[];fontSize=18;fontColor=#F0F0F0;labelBackgroundColor=default;fillColor=#576675;" parent="20" vertex="1" connectable="0">
                    <mxGeometry x="-0.4813" y="-2" relative="1" as="geometry">
                        <mxPoint x="436" y="-248" as="offset"/>
                    </mxGeometry>
                </mxCell>
                <mxCell id="37" value="NO" style="edgeLabel;html=1;align=center;verticalAlign=middle;resizable=0;points=[];fontSize=18;fontColor=#F0F0F0;labelBackgroundColor=default;fillColor=#576675;" parent="20" vertex="1" connectable="0">
                    <mxGeometry x="-0.4813" y="-2" relative="1" as="geometry">
                        <mxPoint x="423" y="-458" as="offset"/>
                    </mxGeometry>
                </mxCell>
                <mxCell id="13" value="&lt;div style=&quot;color: rgb(212, 212, 212); font-family: &amp;quot;jetbrains mono&amp;quot;, consolas, &amp;quot;courier new&amp;quot;, monospace; font-size: 12px; line-height: 22px;&quot;&gt;&lt;span style=&quot;color: #569cd6&quot;&gt;string&lt;/span&gt;.&lt;span style=&quot;color: #dcdcaa&quot;&gt;IsNullOrEmpty&lt;/span&gt;(&lt;span style=&quot;color: #9cdcfe&quot;&gt;temp&lt;/span&gt;)&lt;/div&gt;" style="rhombus;whiteSpace=wrap;html=1;fontSize=18;fontColor=#F0F0F0;labelBackgroundColor=none;fillColor=#576675;" parent="1" vertex="1">
                    <mxGeometry x="297.25" y="800" width="233.5" height="160" as="geometry"/>
                </mxCell>
                <mxCell id="24" value="" style="edgeStyle=none;html=1;fontSize=18;fontColor=#F0F0F0;strokeColor=#576675;strokeWidth=2;fillColor=#576675;" parent="1" source="15" target="23" edge="1">
                    <mxGeometry relative="1" as="geometry"/>
                </mxCell>
                <mxCell id="15" value="&lt;div style=&quot;color: rgb(212, 212, 212); font-family: &amp;quot;jetbrains mono&amp;quot;, consolas, &amp;quot;courier new&amp;quot;, monospace; font-size: 12px; line-height: 22px;&quot;&gt;&lt;span style=&quot;color: #9cdcfe&quot;&gt;temp&lt;/span&gt; += &lt;span style=&quot;color: #ce9178&quot;&gt;&quot;'&quot;&lt;/span&gt; + &lt;span style=&quot;color: #9cdcfe&quot;&gt;strings&lt;/span&gt;[&lt;span style=&quot;color: #9cdcfe&quot;&gt;i&lt;/span&gt;] + &lt;span style=&quot;color: #ce9178&quot;&gt;&quot;'&quot;&lt;/span&gt;;&lt;/div&gt;" style="whiteSpace=wrap;html=1;fontSize=18;fontColor=#F0F0F0;labelBackgroundColor=none;fillColor=#576675;" parent="1" vertex="1">
                    <mxGeometry x="276" y="1020" width="276" height="40" as="geometry"/>
                </mxCell>
                <mxCell id="27" style="edgeStyle=none;html=1;entryX=0;entryY=0.5;entryDx=0;entryDy=0;fontSize=18;fontColor=#F0F0F0;strokeColor=#576675;strokeWidth=2;fillColor=#576675;" parent="1" source="19" target="23" edge="1">
                    <mxGeometry relative="1" as="geometry">
                        <Array as="points">
                            <mxPoint x="90" y="1160"/>
                        </Array>
                    </mxGeometry>
                </mxCell>
                <mxCell id="19" value="&lt;div style=&quot;color: rgb(212, 212, 212); font-family: &amp;quot;jetbrains mono&amp;quot;, consolas, &amp;quot;courier new&amp;quot;, monospace; font-size: 12px; line-height: 22px;&quot;&gt;&lt;span style=&quot;color: #9cdcfe&quot;&gt;temp&lt;/span&gt; += &lt;span style=&quot;color: #ce9178&quot;&gt;&quot; &quot;&lt;/span&gt; + &lt;span style=&quot;color: #ce9178&quot;&gt;&quot;'&quot;&lt;/span&gt; + &lt;span style=&quot;color: #9cdcfe&quot;&gt;strings&lt;/span&gt;[&lt;span style=&quot;color: #9cdcfe&quot;&gt;i&lt;/span&gt;] + &lt;span style=&quot;color: #ce9178&quot;&gt;&quot;'&quot;&lt;/span&gt;;&lt;/div&gt;" style="whiteSpace=wrap;html=1;fontSize=18;fontColor=#F0F0F0;labelBackgroundColor=none;fillColor=#576675;" parent="1" vertex="1">
                    <mxGeometry x="-70" y="1020" width="320.25" height="40" as="geometry"/>
                </mxCell>
                <mxCell id="28" value="" style="edgeStyle=none;html=1;fontSize=18;fontColor=#F0F0F0;strokeColor=#576675;entryX=0;entryY=0.5;entryDx=0;entryDy=0;strokeWidth=4;fillColor=#576675;" parent="1" source="23" target="9" edge="1">
                    <mxGeometry relative="1" as="geometry">
                        <mxPoint x="414" y="1260" as="targetPoint"/>
                        <Array as="points">
                            <mxPoint x="414" y="1260"/>
                            <mxPoint x="-120" y="1260"/>
                            <mxPoint x="-120" y="420"/>
                        </Array>
                    </mxGeometry>
                </mxCell>
                <mxCell id="23" value="&lt;div style=&quot;color: rgb(212, 212, 212); font-family: &amp;quot;jetbrains mono&amp;quot;, consolas, &amp;quot;courier new&amp;quot;, monospace; font-size: 16px; line-height: 22px;&quot;&gt;&lt;span style=&quot;color: #9cdcfe&quot;&gt;i&lt;/span&gt;++;&lt;/div&gt;" style="whiteSpace=wrap;html=1;fontSize=18;fontColor=#F0F0F0;labelBackgroundColor=none;fillColor=#576675;" parent="1" vertex="1">
                    <mxGeometry x="354" y="1140" width="120" height="40" as="geometry"/>
                </mxCell>
                <mxCell id="39" value="" style="edgeStyle=none;html=1;fontSize=18;fontColor=#F0F0F0;strokeColor=#576675;strokeWidth=2;fillColor=#576675;" parent="1" source="34" target="38" edge="1">
                    <mxGeometry relative="1" as="geometry"/>
                </mxCell>
                <mxCell id="45" value="YES" style="edgeLabel;html=1;align=center;verticalAlign=middle;resizable=0;points=[];fontSize=18;fontColor=default;fillColor=#576675;" parent="39" vertex="1" connectable="0">
                    <mxGeometry x="-0.5025" relative="1" as="geometry">
                        <mxPoint as="offset"/>
                    </mxGeometry>
                </mxCell>
                <mxCell id="42" value="" style="edgeStyle=none;html=1;fontSize=18;fontColor=#F0F0F0;strokeColor=#576675;strokeWidth=2;labelBackgroundColor=default;fillColor=#576675;" parent="1" source="34" target="41" edge="1">
                    <mxGeometry relative="1" as="geometry">
                        <Array as="points">
                            <mxPoint x="150" y="1385"/>
                        </Array>
                    </mxGeometry>
                </mxCell>
                <mxCell id="44" value="NO" style="edgeLabel;html=1;align=center;verticalAlign=middle;resizable=0;points=[];fontSize=18;fontColor=default;fillColor=#576675;" parent="42" vertex="1" connectable="0">
                    <mxGeometry x="-0.588" y="-2" relative="1" as="geometry">
                        <mxPoint as="offset"/>
                    </mxGeometry>
                </mxCell>
                <mxCell id="34" value="&lt;div style=&quot;color: rgb(212, 212, 212); font-family: &amp;quot;jetbrains mono&amp;quot;, consolas, &amp;quot;courier new&amp;quot;, monospace; font-size: 16px; line-height: 22px;&quot;&gt;&lt;span style=&quot;color: #9cdcfe&quot;&gt;temp&lt;/span&gt; == &lt;span style=&quot;color: #569cd6&quot;&gt;string&lt;/span&gt;.Empty&lt;/div&gt;" style="rhombus;whiteSpace=wrap;html=1;fontSize=18;fontColor=#F0F0F0;labelBackgroundColor=none;fillColor=#576675;" parent="1" vertex="1">
                    <mxGeometry x="292" y="1320" width="244" height="130" as="geometry"/>
                </mxCell>
                <mxCell id="47" value="" style="edgeStyle=none;html=1;labelBackgroundColor=default;fontSize=18;fontColor=default;strokeColor=#576675;strokeWidth=2;fillColor=#576675;" parent="1" source="38" edge="1">
                    <mxGeometry relative="1" as="geometry">
                        <mxPoint x="414" y="1647.5" as="targetPoint"/>
                    </mxGeometry>
                </mxCell>
                <mxCell id="38" value="&lt;div style=&quot;color: rgb(212, 212, 212); font-family: &amp;quot;jetbrains mono&amp;quot;, consolas, &amp;quot;courier new&amp;quot;, monospace; font-size: 16px; line-height: 22px;&quot;&gt;&lt;span style=&quot;color: #c586c0&quot;&gt;return&lt;/span&gt; &lt;span style=&quot;color: #569cd6&quot;&gt;new&lt;/span&gt; &lt;span style=&quot;color: #569cd6&quot;&gt;string&lt;/span&gt;[&lt;span style=&quot;color: #b5cea8&quot;&gt;0&lt;/span&gt;];&lt;/div&gt;" style="whiteSpace=wrap;html=1;fontSize=18;fontColor=#F0F0F0;labelBackgroundColor=none;fillColor=#576675;" parent="1" vertex="1">
                    <mxGeometry x="297" y="1530" width="234" height="45" as="geometry"/>
                </mxCell>
                <mxCell id="48" style="edgeStyle=none;html=1;entryX=0;entryY=0.5;entryDx=0;entryDy=0;labelBackgroundColor=default;fontSize=18;fontColor=default;strokeColor=#576675;strokeWidth=2;fillColor=#576675;" parent="1" source="41" edge="1">
                    <mxGeometry relative="1" as="geometry">
                        <mxPoint x="354" y="1677.5" as="targetPoint"/>
                        <Array as="points">
                            <mxPoint x="150" y="1678"/>
                        </Array>
                    </mxGeometry>
                </mxCell>
                <mxCell id="41" value="&lt;div style=&quot;color: rgb(212, 212, 212); font-family: &amp;quot;jetbrains mono&amp;quot;, consolas, &amp;quot;courier new&amp;quot;, monospace; font-size: 16px; line-height: 22px;&quot;&gt;&lt;span style=&quot;color: #c586c0&quot;&gt;return&lt;/span&gt; &lt;span style=&quot;color: #9cdcfe&quot;&gt;temp&lt;/span&gt;.&lt;span style=&quot;color: #dcdcaa&quot;&gt;Split&lt;/span&gt;(&lt;span style=&quot;color: #ce9178&quot;&gt;'&lt;/span&gt;&lt;span style=&quot;color: #ce9178&quot;&gt; &lt;/span&gt;&lt;span style=&quot;color: #ce9178&quot;&gt;'&lt;/span&gt;);&lt;/div&gt;" style="whiteSpace=wrap;html=1;fontSize=18;fontColor=#F0F0F0;labelBackgroundColor=none;fillColor=#576675;" parent="1" vertex="1">
                    <mxGeometry x="30" y="1530" width="240" height="45" as="geometry"/>
                </mxCell>
                <mxCell id="50" style="edgeStyle=none;html=1;entryX=0.5;entryY=0;entryDx=0;entryDy=0;strokeWidth=2;fillColor=#576675;strokeColor=#576675;" parent="1" source="49" target="3" edge="1">
                    <mxGeometry relative="1" as="geometry"/>
                </mxCell>
                <mxCell id="49" value="Начало" style="rounded=1;whiteSpace=wrap;html=1;arcSize=50;fontSize=18;fontColor=#F0F0F0;fillColor=#576675;" parent="1" vertex="1">
                    <mxGeometry x="354" width="120" height="50" as="geometry"/>
                </mxCell>
            </root>
        </mxGraphModel>
    </diagram>
</mxfile>